<svg xmlns="http://www.w3.org/2000/svg" width="512" height="512"><rect width="512" height="512" fill="#efecdf"/><g stroke="#c9c4af" stroke-width="2" opacity=".55"><path d="M11 17L80 19M433 490L499 488M4 220L16 221M492 125L505 129M230 504L292 499M70 6L133 8M370 21L389 23M5 451L23 448"/></g><g fill="#c0bbaa" opacity=".45"><path d="M0 0H34L20 5H0ZM480 512L493 502L512 500V512ZM0 321L11 313L6 347H0Z"/><rect x="72" y="172" width="3" height="2"/><rect x="392" y="301" width="5" height="2"/><rect x="206" y="437" width="2" height="3"/></g></svg>
